<?xml version="1.0" standalone="no"?>
<!DOCTYPE svg PUBLIC "-//W3C//DTD SVG 20010904//EN"
        "http://www.w3.org/TR/2001/REC-SVG-20010904/DTD/svg10.dtd">
<svg version="1.0" xmlns="http://www.w3.org/2000/svg"
     width="1200.000000pt" height="1200.000000pt" viewBox="0 0 1200.000000 1200.000000"
     preserveAspectRatio="xMidYMid meet">
    <metadata>
        Created by potrace 1.14, written by Peter Selinger 2001-2017
    </metadata>
    <g transform="translate(0.000000,1200.000000) scale(0.100000,-0.100000)"
       fill="#000000" stroke="none">
        <path d="M0 6000 l0 -6000 6000 0 6000 0 0 6000 0 6000 -6000 0 -6000 0 0
-6000z m7175 3826 c160 -42 278 -161 320 -321 13 -52 15 -223 15 -1357 0 -915
-3 -1313 -11 -1350 -6 -29 -23 -78 -37 -108 -31 -67 -129 -168 -192 -198 -113
-53 -78 -52 -1245 -52 -925 0 -1084 -2 -1101 -14 -11 -8 -241 -204 -510 -436
l-489 -421 -5 421 c-5 403 -6 422 -24 436 -16 11 -85 14 -382 14 -227 0 -383
4 -416 11 -84 18 -168 63 -226 121 -63 64 -86 100 -112 178 -20 58 -20 85 -20
1394 l0 1335 24 66 c51 141 158 242 296 279 79 21 4037 23 4115 2z m1140
-1302 c71 -37 147 -115 178 -181 l22 -48 3 -1154 c3 -1278 6 -1210 -62 -1306
-45 -63 -103 -109 -174 -137 -54 -20 -76 -22 -399 -27 -261 -5 -345 -9 -355
-19 -10 -10 -14 -95 -18 -362 l-5 -349 -423 364 -423 364 -952 3 -952 3 -60
24 c-43 17 -78 42 -122 87 -35 34 -63 69 -63 77 0 8 108 107 239 220 l239 206
1089 3 1088 3 85 31 c154 55 262 146 333 281 75 143 71 86 75 1071 l3 883 297
-3 297 -3 60 -31z m-975 -4132 c0 -181 2 -331 5 -334 3 -3 32 5 64 18 140 57
376 69 531 28 157 -41 290 -143 358 -272 57 -108 82 -232 82 -412 0 -285 -59
-455 -205 -588 -117 -107 -258 -156 -450 -156 -147 0 -227 19 -344 80 -46 25
-85 43 -86 42 0 -2 -8 -25 -16 -53 l-15 -50 -239 0 -240 0 -3 1013 -2 1012
280 0 280 0 0 -328z m3520 -68 l5 -209 159 -3 158 -3 -7 -187 c-3 -103 -9
-195 -11 -204 -5 -16 -21 -18 -155 -18 l-149 0 1 -247 c0 -266 6 -303 49 -334
50 -37 169 -42 287 -13 l23 6 -2 -188 -3 -188 -60 -18 c-76 -23 -237 -48 -312
-48 -77 0 -204 23 -275 50 -67 25 -156 101 -194 166 -14 23 -35 69 -47 101
-20 54 -22 80 -27 383 l-5 325 -90 5 -90 5 -3 202 -2 202 92 3 93 3 3 145 3
146 202 48 c111 27 231 56 267 66 36 10 70 17 75 16 6 -2 12 -85 15 -212z
m-8912 -401 l-3 -207 -110 -17 c-193 -30 -348 -73 -367 -102 -4 -7 -8 -213 -8
-460 l0 -447 -277 2 -278 3 -3 708 -2 707 269 0 c299 0 281 5 281 -71 0 -47
11 -49 78 -15 113 57 276 102 375 105 l47 1 -2 -207z m977 178 c236 -62 404
-220 460 -431 9 -32 18 -130 22 -233 5 -148 4 -180 -8 -188 -8 -5 -220 -9
-488 -8 -260 0 -475 -2 -478 -5 -8 -8 25 -60 59 -93 45 -44 106 -69 213 -87
153 -27 367 -14 542 32 40 11 75 17 78 14 3 -3 5 -78 5 -168 l0 -162 -52 -20
c-100 -39 -181 -55 -346 -72 -269 -27 -489 7 -677 103 -105 53 -226 172 -272
268 -59 123 -68 167 -68 349 0 192 9 237 71 366 91 192 247 303 488 349 107
21 349 13 451 -14z m1461 13 c69 -9 158 -24 198 -33 l71 -16 0 -195 c0 -168
-2 -194 -15 -191 -8 2 -55 15 -105 29 -72 19 -122 25 -250 29 -188 6 -241 -3
-251 -44 -9 -36 19 -57 109 -83 277 -80 376 -116 449 -162 120 -76 163 -161
163 -328 0 -97 -2 -110 -31 -170 -73 -151 -221 -234 -472 -266 -138 -17 -220
-18 -368 -4 -185 17 -391 60 -406 83 -4 7 -8 96 -8 200 0 206 -2 200 64 172
106 -45 336 -78 498 -73 104 3 120 5 139 24 27 28 18 59 -23 80 -17 9 -106 40
-198 70 -196 63 -331 127 -392 187 -107 104 -135 290 -66 449 39 91 163 181
298 218 149 41 390 50 596 24z m5120 1 c341 -55 526 -212 595 -502 18 -76 20
-110 16 -243 -5 -173 -18 -236 -72 -343 -63 -123 -135 -193 -266 -258 -85 -42
-172 -67 -303 -84 -138 -19 -221 -19 -366 -1 -380 48 -578 223 -636 561 -31
180 -6 373 66 524 73 151 213 263 395 317 150 43 403 56 571 29z m-3986 -452
c0 -418 2 -451 19 -490 23 -51 51 -70 119 -83 86 -16 187 13 261 75 l31 27 0
459 0 459 280 0 280 0 -2 -707 -3 -708 -260 0 -260 0 -8 48 c-5 26 -13 47 -17
47 -4 0 -45 -17 -91 -39 -98 -45 -137 -55 -276 -72 -159 -20 -315 8 -418 73
-59 37 -133 121 -161 182 -50 110 -54 153 -54 684 l0 492 280 0 280 0 0 -447z"/>
        <path d="M4818 9135 c-123 -46 -207 -154 -223 -287 l-6 -56 -177 -4 -178 -3
-67 -33 c-48 -24 -79 -48 -107 -83 -72 -92 -71 -76 -68 -725 l3 -579 31 -55
c17 -30 54 -74 82 -97 93 -76 50 -73 1018 -73 860 0 863 0 921 22 73 27 153
101 184 171 l24 52 0 580 0 580 -28 56 c-32 66 -99 132 -165 162 -41 19 -69
22 -229 25 l-183 4 0 44 c0 102 -82 228 -184 282 l-51 27 -280 2 c-220 2 -288
-1 -317 -12z m580 -149 c47 -25 84 -73 98 -127 7 -28 11 -56 8 -60 -3 -5 -176
-9 -385 -9 l-379 0 0 33 c0 38 30 106 56 128 54 46 67 48 327 49 195 0 254 -3
275 -14z m599 -357 c38 -14 83 -57 99 -96 10 -23 14 -79 14 -196 l0 -165 -87
-31 c-170 -61 -499 -131 -618 -131 -38 0 -43 3 -75 52 -89 135 -290 147 -398
24 -16 -19 -33 -44 -37 -55 -8 -26 -45 -27 -194 -5 -163 24 -283 52 -434 101
l-139 45 4 173 c3 169 3 172 31 214 18 27 44 50 70 62 40 18 79 19 889 19 574
0 856 -3 875 -11z m-832 -613 c103 -44 68 -196 -47 -196 -110 0 -137 151 -34
196 39 17 40 17 81 0z m-885 -49 c148 -45 280 -72 457 -94 l142 -18 17 -38
c10 -21 35 -56 56 -77 118 -118 322 -80 397 75 l19 39 142 18 c170 21 336 57
481 104 58 19 109 34 112 34 4 0 7 -132 7 -293 0 -287 -1 -295 -23 -337 -16
-30 -37 -51 -67 -67 l-44 -23 -866 2 -867 3 -36 28 c-71 54 -72 57 -75 391 -3
284 -2 298 15 294 10 -3 70 -21 133 -41z"/>
        <path d="M7461 3705 c-30 -9 -70 -27 -88 -41 l-33 -25 0 -233 c0 -228 0 -233
23 -253 81 -75 248 -90 345 -31 72 44 107 156 99 314 -6 115 -18 162 -54 204
-57 68 -181 96 -292 65z"/>
        <path d="M2551 3745 c-24 -7 -57 -26 -72 -41 -29 -28 -64 -118 -53 -135 3 -5
115 -9 250 -9 l244 0 0 44 c0 55 -32 104 -85 131 -51 26 -217 32 -284 10z"/>
        <path d="M9215 3711 c-77 -20 -132 -69 -157 -138 -8 -25 -13 -86 -13 -178 0
-127 3 -145 24 -188 43 -87 106 -120 232 -119 113 0 191 50 225 142 9 25 18
87 21 138 10 167 -32 278 -120 321 -50 24 -161 36 -212 22z"/>
    </g>
</svg>
